<svg width="21" height="22" viewBox="0 0 21 22" fill="none" xmlns="http://www.w3.org/2000/svg">
<path d="M18.0394 14.6329H7.22201C7.04252 14.6331 6.86827 14.5724 6.72788 14.4606C6.58749 14.3487 6.4893 14.1925 6.44946 14.0174L4.62801 6.08197C4.60137 5.96606 4.60121 5.84562 4.62755 5.72963C4.65388 5.61364 4.70604 5.50509 4.78013 5.41204C4.85422 5.319 4.94834 5.24386 5.05549 5.19222C5.16263 5.14058 5.28005 5.11376 5.39899 5.11377H19.8624C19.9815 5.11352 20.0991 5.14016 20.2065 5.1917C20.3138 5.24324 20.4081 5.31835 20.4824 5.41142C20.5567 5.5045 20.609 5.61314 20.6354 5.72925C20.6618 5.84535 20.6617 5.96593 20.635 6.08197L18.8104 14.0174C18.7706 14.1922 18.6727 14.3483 18.5326 14.4601C18.3925 14.5719 18.2186 14.6328 18.0394 14.6329ZM7.85166 13.0508H17.4098L18.8689 6.69739H6.39198L7.85166 13.0508Z" fill="white"/>
<path d="M8.76994 21.6993C8.17044 21.6993 7.58439 21.5215 7.08592 21.1885C6.58744 20.8554 6.19893 20.382 5.96951 19.8281C5.74008 19.2742 5.68006 18.6648 5.79701 18.0768C5.91397 17.4888 6.20266 16.9487 6.62658 16.5248C7.0505 16.1009 7.5906 15.8122 8.17859 15.6952C8.76658 15.5782 9.37605 15.6383 9.92993 15.8677C10.4838 16.0971 10.9572 16.4856 11.2903 16.9841C11.6233 17.4826 11.8011 18.0686 11.8011 18.6681C11.8003 19.4718 11.4807 20.2423 10.9124 20.8106C10.3441 21.3788 9.57361 21.6985 8.76994 21.6993ZM8.76994 17.2195C8.48331 17.2195 8.20311 17.3045 7.96479 17.4638C7.72647 17.623 7.54073 17.8494 7.43106 18.1142C7.3214 18.379 7.29273 18.6705 7.34869 18.9516C7.40464 19.2327 7.54272 19.4909 7.74543 19.6935C7.94815 19.8962 8.20641 20.0342 8.48755 20.09C8.7687 20.1459 9.06009 20.1171 9.32487 20.0073C9.58966 19.8976 9.81595 19.7118 9.97512 19.4734C10.1343 19.235 10.2192 18.9548 10.2191 18.6681C10.2187 18.284 10.0658 17.9157 9.79415 17.6441C9.52246 17.3725 9.1541 17.2198 8.76994 17.2195Z" fill="white"/>
<path d="M16.4909 21.6993C15.8914 21.6993 15.3053 21.5215 14.8069 21.1885C14.3084 20.8554 13.9199 20.382 13.6905 19.8281C13.461 19.2742 13.401 18.6648 13.518 18.0768C13.6349 17.4888 13.9236 16.9487 14.3475 16.5248C14.7714 16.1009 15.3115 15.8122 15.8995 15.6952C16.4875 15.5782 17.097 15.6383 17.6509 15.8677C18.2047 16.0971 18.6782 16.4856 19.0112 16.9841C19.3443 17.4826 19.5221 18.0686 19.5221 18.6681C19.5212 19.4718 19.2016 20.2423 18.6333 20.8106C18.0651 21.3788 17.2946 21.6985 16.4909 21.6993ZM16.4909 17.2195C16.2043 17.2195 15.9241 17.3045 15.6857 17.4638C15.4474 17.623 15.2617 17.8494 15.152 18.1142C15.0423 18.379 15.0137 18.6705 15.0696 18.9516C15.1256 19.2327 15.2637 19.4909 15.4664 19.6935C15.6691 19.8962 15.9274 20.0342 16.2085 20.09C16.4896 20.1459 16.781 20.1171 17.0458 20.0073C17.3106 19.8976 17.5369 19.7118 17.6961 19.4734C17.8552 19.235 17.9401 18.9548 17.94 18.6681C17.9396 18.284 17.7868 17.9157 17.5151 17.6441C17.2434 17.3725 16.8751 17.2198 16.4909 17.2195Z" fill="white"/>
<path d="M5.39894 6.69576C5.2329 6.69575 5.07108 6.64348 4.9364 6.54637C4.80171 6.44927 4.701 6.31224 4.64853 6.15471L3.29273 2.08203H0.791015C0.581225 2.08203 0.380027 1.99869 0.231683 1.85035C0.0833389 1.702 0 1.50081 0 1.29102C0 1.08123 0.0833389 0.880027 0.231683 0.731683C0.380027 0.583339 0.581225 0.5 0.791015 0.5H3.86543C4.03147 0.500015 4.19329 0.552279 4.32798 0.649387C4.46266 0.746495 4.56337 0.883522 4.61584 1.04105L6.15199 5.65478C6.19159 5.77368 6.20237 5.90028 6.18346 6.02416C6.16454 6.14804 6.11646 6.26565 6.04318 6.36731C5.9699 6.46896 5.87351 6.55175 5.76196 6.60886C5.65042 6.66596 5.5269 6.69575 5.40158 6.69576H5.39894Z" fill="white"/>
</svg>
