<svg width="1600" height="169" viewBox="0 0 1600 169" fill="none" xmlns="http://www.w3.org/2000/svg">
<g clip-path="url(#clip0_208_8)">
<g clip-path="url(#clip1_208_8)">
<path d="M440.313 69.3037C436.88 72.901 435.315 77.8637 434.141 82.6973C431.549 93.3805 430.34 104.397 430.555 115.388C430.681 121.773 432.165 129.409 438.104 131.752C441.217 132.979 444.866 132.281 447.7 130.499C450.532 128.715 452.639 125.965 454.265 123.039C460.505 111.795 460.156 98.2013 459.638 85.3531C459.235 75.2991 453.003 56.0083 440.313 69.3037Z" fill="#BCC7FF"/>
<path d="M489.796 86.537C483.458 89.7786 481.771 97.8485 480.224 104.798C477.717 116.075 473.737 127.024 468.415 137.277C465.191 143.489 461.25 149.681 455.247 153.281C449.246 156.883 440.709 157.099 435.832 152.077C431.218 147.329 431.257 139.944 430.278 133.395C429.298 126.846 425.467 119.294 418.847 119.228C413.589 119.174 409.668 123.941 404.819 125.975C396.737 129.367 387.104 124.357 382.348 116.994C377.593 109.629 376.521 100.557 375.57 91.8421C366.732 100.39 355.562 106.5 343.599 109.33C340.054 110.169 336.151 110.684 332.911 109.018C325.507 105.203 327.223 94.1509 330.764 86.6106C346.123 53.9091 376.006 28.3667 410.692 18.2935C445.379 8.22191 484.29 13.7855 514.766 33.1767C535.731 46.5168 563.896 72.6749 562.208 99.9056C560.676 124.651 539.33 140.82 522.09 116.74C515.259 107.199 507.628 77.4123 489.796 86.537Z" fill="#2C235E"/>
<path d="M395.105 73.7234C399.018 66.8606 403.7 60.5492 410.256 56.0562C423.409 47.0402 441.796 46.8667 457.114 46.7725C473.203 46.6723 489.765 47.094 505.104 52.5021C518.398 57.1895 528.235 66.0692 535.938 77.7037C539.475 83.0426 542.553 88.6589 545.66 94.2566C556.3 86.6404 564.11 74.6088 563.855 61.6258C562.887 12.247 491.067 1.14967 454.171 -3.08621C434.973 -5.29162 416.167 -2.00369 400.503 13.4566C386.666 27.1107 381.244 49.7868 390.463 66.905C391.785 69.3586 393.353 71.6197 395.105 73.7234Z" fill="#246CD9"/>
<path d="M455.89 6.27967C414.267 22.0674 386.462 42.7131 384.395 50.1457C382.329 57.5768 367.447 106.111 389.507 114.439C411.55 122.758 420.302 100.743 426.481 73.7385L431.111 56.0338L479.334 25.783L455.89 6.27967Z" fill="#246CD9"/>
<path d="M425.31 -0.374005C380.006 8.00506 360.994 21.9866 348.82 32.8103C336.644 43.6355 302.201 88.5408 322.975 105.076C343.749 121.613 382.598 64.9957 387.109 58.1898C391.62 51.3806 450.468 32.8103 450.468 32.8103L425.31 -0.374005Z" fill="#246CD9"/>
<path d="M431.112 56.0338C424.03 78.2271 413.178 143.229 437.63 151.137C462.084 159.045 469.456 100.976 476.611 78.5005C483.765 56.0278 501.415 53.9435 513.216 78.6604C525.018 103.379 551.603 150.95 581.178 146.091C610.752 141.23 583.965 105.093 573.91 83.3598C563.855 61.6273 565.195 31.6891 536.639 19.4404C508.086 7.19331 442.726 19.6348 431.112 56.0338Z" fill="#246CD9"/>
<path d="M428.503 128.141C423.583 114.046 424.94 98.3163 427.272 83.8533C429.295 71.2955 431.321 57.3106 442.488 49.3876C450.763 43.516 463.674 43.6281 470.004 51.5616C478.58 62.3061 472.62 75.9031 469.345 87.3833C465.193 101.935 463.242 118.125 457.513 132.075C455.417 137.178 452.003 141.493 446.068 141.806C441.63 142.04 437.282 139.952 434.096 136.855C431.334 134.169 429.587 131.242 428.503 128.141Z" fill="#3288ED"/>
<path d="M445.215 -3.73952C402.779 -7.52236 349.034 4.93411 328.127 11.8927C307.221 18.8499 295.836 31.1792 302.69 46.7023C309.544 62.2256 377.163 47.6967 377.163 47.6967L445.215 -3.73952Z" fill="#246CD9"/>
<path d="M389.896 110.769C377.86 105.325 382.966 73.5992 385.893 55.7304C388.818 37.8628 418.329 26.4381 425.167 31.7759C432.007 37.1167 428.479 50.1787 423.572 63.6666C418.665 77.1537 412.371 120.93 389.896 110.769Z" fill="#3288ED"/>
<path d="M542.298 52.6922C518.466 61.14 561.867 148.332 580.1 139.434C598.334 130.536 574.764 100.226 568.982 82.4616C563.201 64.6969 556.086 47.8044 542.298 52.6922Z" fill="#3288ED"/>
<path d="M384.395 29.5525C371.256 24.4255 337.937 44.0604 327.203 66.8398C316.469 89.6176 318.538 99.9957 331.244 103.7C343.951 107.406 370.349 72.3521 377.163 59.8496C383.977 47.3483 392.375 32.667 384.395 29.5525Z" fill="#3288ED"/>
<path d="M328.615 72.3456C325.691 77.9374 323.677 84.4233 325.239 90.5373C326.802 96.6513 332.984 101.863 339.144 100.509C343.42 99.5686 346.518 95.9457 349.119 92.4226C354.937 84.5448 377.23 55.4632 362.984 47.4609C350.888 40.6637 333.215 63.549 328.615 72.3456Z" fill="#BCC7FF"/>
<path d="M315.881 30.1043C313.701 32.0899 311.789 34.9189 312.426 37.7971C313.131 40.9834 316.702 42.7492 319.961 42.8852C324.468 43.0736 328.768 41.0581 332.632 38.7286C337.848 35.5827 342.962 26.9838 334.752 23.6122C329.235 21.3455 319.726 26.6026 315.881 30.1043Z" fill="#BCC7FF"/>
<path d="M551.353 95.0091C552.159 106.189 556.77 117.062 564.247 125.411C566.171 127.558 568.369 129.601 571.097 130.529C573.827 131.459 577.193 131.019 579.054 128.819C580.841 126.701 580.829 123.621 580.46 120.873C579.082 110.589 574.137 101.179 569.274 92.0129C563.296 80.7464 550.21 79.1391 551.353 95.0091Z" fill="#BCC7FF"/>
<path d="M393.021 55.0365C390.533 57.9537 389.639 61.8799 389.008 65.6645C387.237 76.2607 386.876 87.095 387.939 97.7873C388.264 101.046 388.903 104.632 391.477 106.66C393.988 108.636 397.718 108.445 400.526 106.917C403.333 105.39 405.372 102.766 407.078 100.061C412.807 90.9707 415.644 80.0857 415.082 69.3547C414.894 65.7797 414.314 62.1444 412.629 58.9868C409.051 52.2794 398.685 48.3949 393.021 55.0365Z" fill="#BCC7FF"/>
<path d="M360.043 9.8321C327.017 15.3015 306.082 29.5462 307.564 41.5825C309.047 53.6189 343.541 39.3278 350.235 31.2537C356.929 23.1782 360.043 9.8321 360.043 9.8321Z" fill="#3288ED"/>
<path d="M502.254 5.51267C484.984 0.816261 467.35 -1.57306 454.171 -3.0862C451.142 -3.43458 448.126 -3.62597 445.127 -3.67382L445.214 -3.7396C402.779 -7.52244 349.034 4.93403 328.127 11.8927C309.241 18.177 298.129 28.8467 301.21 42.2944C302.125 35.8815 305.786 29.6257 310.75 25.2911C318.499 18.5224 328.706 15.4183 338.634 12.724C365.919 5.31978 393.852 -0.36494 422.159 -1.60595C435.442 -2.18609 449.075 -2.25637 462.175 -0.342519C475.535 1.60871 488.895 3.55994 502.254 5.51267Z" fill="#8CDDF6"/>
</g>
<g clip-path="url(#clip2_208_8)">
<path d="M1199.25 62.0365C1201.74 64.9537 1202.63 68.8799 1203.27 72.6645C1205.04 83.2607 1205.4 94.095 1204.34 104.787C1204.01 108.046 1203.37 111.632 1200.8 113.66C1198.29 115.636 1194.56 115.445 1191.75 113.917C1188.94 112.39 1186.9 109.766 1185.2 107.061C1179.47 97.9707 1176.63 87.0857 1177.19 76.3547C1177.38 72.7797 1177.96 69.1444 1179.65 65.9868C1183.22 59.2794 1193.59 55.3949 1199.25 62.0365Z" fill="#BCC7FF"/>
<path d="M1197.17 80.7234C1193.26 73.8606 1188.57 67.5492 1182.02 63.0562C1168.87 54.0402 1150.48 53.8667 1135.16 53.7725C1119.07 53.6723 1102.51 54.094 1087.17 59.5021C1073.88 64.1895 1064.04 73.0692 1056.33 84.7037C1052.8 90.0426 1049.72 95.6589 1046.61 101.257C1035.97 93.6404 1028.17 81.6088 1028.42 68.6258C1029.39 19.247 1101.21 8.14967 1138.1 3.91379C1157.3 1.70838 1176.11 4.99631 1191.77 20.4566C1205.61 34.1107 1211.03 56.7868 1201.81 73.905C1200.49 76.3586 1198.92 78.6197 1197.17 80.7234Z" fill="#246CD9"/>
<path d="M1166.96 6.62599C1212.27 15.0051 1231.28 28.9866 1243.46 39.8103C1255.63 50.6355 1290.07 95.5408 1269.3 112.076C1248.52 128.613 1209.68 71.9957 1205.17 65.1898C1200.65 58.3806 1141.81 39.8103 1141.81 39.8103L1166.96 6.62599Z" fill="#246CD9"/>
<path d="M1136.39 13.2797C1178.01 29.0674 1205.81 49.7131 1207.88 57.1457C1209.95 64.5768 1224.83 113.111 1202.77 121.439C1180.72 129.758 1171.97 107.743 1165.79 80.7385L1161.16 63.0338L1112.94 32.783L1136.39 13.2797Z" fill="#246CD9"/>
<path d="M1161.16 63.0338C1168.25 85.2272 1179.1 150.229 1154.64 158.137C1130.19 166.045 1122.82 107.976 1115.67 85.5005C1108.51 63.0278 1090.86 60.9435 1079.06 85.6605C1067.26 110.379 1040.67 157.95 1011.1 153.091C981.522 148.23 1008.31 112.093 1018.36 90.3598C1028.42 68.6273 1027.08 38.6891 1055.63 26.4405C1084.19 14.1933 1149.55 26.6348 1161.16 63.0338Z" fill="#246CD9"/>
<path d="M1147.06 3.26048C1189.49 -0.522361 1243.24 11.9341 1264.15 18.8927C1285.05 25.8499 1296.44 38.1792 1289.58 53.7023C1282.73 69.2256 1215.11 54.6967 1215.11 54.6967L1147.06 3.26048Z" fill="#246CD9"/>
<path d="M1163.77 135.141C1168.69 121.046 1167.34 105.316 1165 90.8533C1162.98 78.2955 1160.95 64.3106 1149.79 56.3876C1141.51 50.516 1128.6 50.6281 1122.27 58.5616C1113.69 69.3061 1119.66 82.9031 1122.93 94.3833C1127.08 108.935 1129.03 125.125 1134.76 139.075C1136.86 144.178 1140.27 148.493 1146.21 148.806C1150.65 149.04 1154.99 146.952 1158.18 143.855C1160.94 141.169 1162.69 138.242 1163.77 135.141Z" fill="#3288ED"/>
<path d="M1202.38 117.769C1214.41 112.325 1209.31 80.5992 1206.38 62.7304C1203.46 44.8628 1173.95 33.4381 1167.11 38.7759C1160.27 44.1167 1163.8 57.1787 1168.7 70.6666C1173.61 84.1537 1179.9 127.93 1202.38 117.769Z" fill="#3288ED"/>
<path d="M1207.88 36.5525C1221.02 31.4255 1254.34 51.0604 1265.07 73.8398C1275.8 96.6176 1273.74 106.996 1261.03 110.7C1248.32 114.406 1221.92 79.3521 1215.11 66.8496C1208.3 54.3483 1199.9 39.667 1207.88 36.5525Z" fill="#3288ED"/>
<path d="M1232.23 16.8321C1265.26 22.3015 1286.19 36.5462 1284.71 48.5825C1283.23 60.6189 1248.73 46.3278 1242.04 38.2537C1235.35 30.1782 1232.23 16.8321 1232.23 16.8321Z" fill="#3288ED"/>
<path d="M1049.97 59.6922C1073.81 68.14 1030.41 155.332 1012.17 146.434C993.94 137.536 1017.51 107.226 1023.29 89.4616C1029.07 71.6969 1036.19 54.8044 1049.97 59.6922Z" fill="#3288ED"/>
<path d="M1151.96 76.3037C1155.39 79.901 1156.96 84.8637 1158.13 89.6973C1160.73 100.381 1161.93 111.397 1161.72 122.388C1161.59 128.773 1160.11 136.409 1154.17 138.752C1151.06 139.979 1147.41 139.281 1144.57 137.499C1141.74 135.715 1139.64 132.965 1138.01 130.039C1131.77 118.795 1132.12 105.201 1132.64 92.3531C1133.04 82.2991 1139.27 63.0083 1151.96 76.3037Z" fill="#BCC7FF"/>
<path d="M1276.4 37.1043C1278.57 39.0899 1280.49 41.9189 1279.85 44.7971C1279.14 47.9834 1275.57 49.7492 1272.31 49.8852C1267.81 50.0736 1263.51 48.0581 1259.64 45.7286C1254.43 42.5827 1249.31 33.9838 1257.52 30.6122C1263.04 28.3455 1272.55 33.6026 1276.4 37.1043Z" fill="#BCC7FF"/>
<path d="M1263.66 79.3456C1266.58 84.9374 1268.6 91.4233 1267.04 97.5373C1265.47 103.651 1259.29 108.863 1253.13 107.509C1248.85 106.569 1245.76 102.946 1243.16 99.4226C1237.34 91.5448 1215.05 62.4632 1229.29 54.4609C1241.39 47.6637 1259.06 70.549 1263.66 79.3456Z" fill="#BCC7FF"/>
<path d="M1040.92 102.009C1040.12 113.189 1035.5 124.062 1028.03 132.411C1026.1 134.558 1023.91 136.601 1021.18 137.529C1018.45 138.459 1015.08 138.019 1013.22 135.819C1011.43 133.701 1011.45 130.621 1011.81 127.873C1013.19 117.589 1018.14 108.179 1023 99.0129C1028.98 87.7464 1042.06 86.1391 1040.92 102.009Z" fill="#BCC7FF"/>
<path d="M1090.02 12.5127C1107.29 7.81626 1124.93 5.42694 1138.1 3.9138C1141.13 3.56542 1144.15 3.37403 1147.15 3.32618L1147.06 3.2604C1189.49 -0.522435 1243.24 11.934 1264.15 18.8927C1283.03 25.177 1294.14 35.8467 1291.06 49.2944C1290.15 42.8815 1286.49 36.6257 1281.52 32.2911C1273.78 25.5224 1263.57 22.4183 1253.64 19.724C1226.35 12.3198 1198.42 6.63506 1170.12 5.39405C1156.83 4.81391 1143.2 4.74363 1130.1 6.65748C1116.74 8.60871 1103.38 10.5599 1090.02 12.5127Z" fill="#8CDDF6"/>
</g>
</g>
<defs>
<clipPath id="clip0_208_8">
<rect width="1600" height="171" fill="white"/>
</clipPath>
<clipPath id="clip1_208_8">
<rect width="291" height="158" fill="white" transform="translate(304 -3)"/>
</clipPath>
<clipPath id="clip2_208_8">
<rect width="287" height="152" fill="white" transform="translate(1005 3)"/>
</clipPath>
</defs>
</svg>
