<svg width="1600" height="516" viewBox="0 0 1600 516" fill="none" xmlns="http://www.w3.org/2000/svg">
<g clip-path="url(#clip0_208_8)">
<path d="M449.313 416.304C445.88 419.901 444.315 424.864 443.141 429.697C440.549 440.381 439.34 451.397 439.555 462.388C439.681 468.773 441.165 476.409 447.104 478.752C450.217 479.979 453.866 479.281 456.7 477.499C459.532 475.715 461.639 472.965 463.265 470.039C469.505 458.795 469.156 445.201 468.638 432.353C468.235 422.299 462.003 403.008 449.313 416.304Z" fill="#BCC7FF"/>
<path d="M498.796 433.537C492.458 436.779 490.771 444.848 489.224 451.798C486.717 463.075 482.737 474.024 477.415 484.277C474.191 490.489 470.25 496.681 464.247 500.281C458.246 503.883 449.709 504.099 444.832 499.077C440.218 494.329 440.257 486.944 439.278 480.395C438.298 473.846 434.467 466.294 427.847 466.228C422.589 466.174 418.668 470.941 413.819 472.975C405.737 476.367 396.104 471.357 391.348 463.994C386.593 456.629 385.521 447.557 384.57 438.842C375.732 447.39 364.562 453.5 352.599 456.33C349.054 457.169 345.151 457.684 341.911 456.018C334.507 452.203 336.223 441.151 339.764 433.611C355.123 400.909 385.006 375.367 419.692 365.294C454.379 355.222 493.29 360.786 523.766 380.177C544.731 393.517 572.896 419.675 571.208 446.906C569.676 471.651 548.33 487.82 531.09 463.74C524.259 454.199 516.628 424.412 498.796 433.537Z" fill="#2C235E"/>
<path d="M404.105 420.723C408.018 413.861 412.7 407.549 419.256 403.056C432.409 394.04 450.796 393.867 466.114 393.773C482.203 393.672 498.765 394.094 514.104 399.502C527.398 404.19 537.235 413.069 544.938 424.704C548.475 430.043 551.553 435.659 554.66 441.257C565.3 433.64 573.11 421.609 572.855 408.626C571.887 359.247 500.067 348.15 463.171 343.914C443.973 341.708 425.167 344.996 409.503 360.457C395.666 374.111 390.244 396.787 399.463 413.905C400.785 416.359 402.353 418.62 404.105 420.723Z" fill="#246CD9"/>
<path d="M464.89 353.28C423.267 369.067 395.462 389.713 393.395 397.146C391.329 404.577 376.447 453.111 398.507 461.439C420.55 469.758 429.302 447.743 435.481 420.738L440.111 403.034L488.334 372.783L464.89 353.28Z" fill="#246CD9"/>
<path d="M434.31 346.626C389.006 355.005 369.994 368.987 357.82 379.81C345.644 390.636 311.201 435.541 331.975 452.076C352.749 468.613 391.598 411.996 396.109 405.19C400.62 398.381 459.468 379.81 459.468 379.81L434.31 346.626Z" fill="#246CD9"/>
<path d="M440.112 403.034C433.03 425.227 422.178 490.229 446.63 498.137C471.084 506.045 478.456 447.976 485.611 425.5C492.765 403.028 510.415 400.944 522.216 425.66C534.018 450.379 560.603 497.95 590.178 493.091C619.752 488.23 592.965 452.093 582.91 430.36C572.855 408.627 574.195 378.689 545.639 366.44C517.086 354.193 451.726 366.635 440.112 403.034Z" fill="#246CD9"/>
<path d="M437.503 475.141C432.583 461.046 433.94 445.316 436.272 430.853C438.295 418.295 440.321 404.311 451.488 396.388C459.763 390.516 472.674 390.628 479.004 398.562C487.58 409.306 481.62 422.903 478.345 434.383C474.193 448.935 472.242 465.125 466.513 479.075C464.417 484.178 461.003 488.493 455.068 488.806C450.63 489.04 446.282 486.952 443.096 483.855C440.334 481.169 438.587 478.242 437.503 475.141Z" fill="#3288ED"/>
<path d="M454.215 343.26C411.779 339.478 358.034 351.934 337.127 358.893C316.221 365.85 304.836 378.179 311.69 393.702C318.544 409.226 386.163 394.697 386.163 394.697L454.215 343.26Z" fill="#246CD9"/>
<path d="M398.896 457.769C386.86 452.325 391.966 420.599 394.893 402.73C397.818 384.863 427.329 373.438 434.167 378.776C441.007 384.117 437.479 397.179 432.572 410.667C427.665 424.154 421.371 467.93 398.896 457.769Z" fill="#3288ED"/>
<path d="M551.298 399.692C527.466 408.14 570.867 495.332 589.1 486.434C607.334 477.536 583.764 447.226 577.982 429.462C572.201 411.697 565.086 394.804 551.298 399.692Z" fill="#3288ED"/>
<path d="M393.395 376.553C380.256 371.426 346.937 391.06 336.203 413.84C325.469 436.618 327.538 446.996 340.244 450.7C352.951 454.406 379.349 419.352 386.163 406.85C392.977 394.348 401.375 379.667 393.395 376.553Z" fill="#3288ED"/>
<path d="M337.615 419.346C334.691 424.937 332.677 431.423 334.239 437.537C335.802 443.651 341.984 448.863 348.144 447.509C352.42 446.569 355.518 442.946 358.119 439.423C363.937 431.545 386.23 402.463 371.984 394.461C359.888 387.664 342.215 410.549 337.615 419.346Z" fill="#BCC7FF"/>
<path d="M324.881 377.104C322.701 379.09 320.789 381.919 321.426 384.797C322.131 387.983 325.702 389.749 328.961 389.885C333.468 390.074 337.768 388.058 341.632 385.729C346.848 382.583 351.962 373.984 343.752 370.612C338.235 368.345 328.726 373.603 324.881 377.104Z" fill="#BCC7FF"/>
<path d="M560.353 442.009C561.159 453.189 565.77 464.062 573.247 472.411C575.171 474.558 577.369 476.601 580.097 477.529C582.827 478.459 586.193 478.019 588.054 475.819C589.841 473.701 589.829 470.621 589.46 467.873C588.082 457.589 583.137 448.179 578.274 439.013C572.296 427.746 559.21 426.139 560.353 442.009Z" fill="#BCC7FF"/>
<path d="M402.021 402.037C399.533 404.954 398.639 408.88 398.008 412.665C396.237 423.261 395.876 434.095 396.939 444.787C397.264 448.046 397.903 451.632 400.477 453.66C402.988 455.636 406.718 455.445 409.526 453.917C412.333 452.39 414.372 449.766 416.078 447.061C421.807 437.971 424.644 427.086 424.082 416.355C423.894 412.78 423.314 409.144 421.629 405.987C418.051 399.279 407.685 395.395 402.021 402.037Z" fill="#BCC7FF"/>
<path d="M369.043 356.832C336.017 362.302 315.082 376.546 316.564 388.583C318.047 400.619 352.541 386.328 359.235 378.254C365.929 370.178 369.043 356.832 369.043 356.832Z" fill="#3288ED"/>
<path d="M511.254 352.513C493.984 347.816 476.35 345.427 463.171 343.914C460.142 343.565 457.126 343.374 454.127 343.326L454.214 343.26C411.779 339.478 358.034 351.934 337.127 358.893C318.241 365.177 307.129 375.847 310.21 389.294C311.125 382.882 314.786 376.626 319.75 372.291C327.499 365.522 337.706 362.418 347.634 359.724C374.919 352.32 402.852 346.635 431.159 345.394C444.442 344.814 458.075 344.744 471.175 346.657C484.535 348.609 497.895 350.56 511.254 352.513Z" fill="#8CDDF6"/>
</g>
<g clip-path="url(#clip1_208_8)">
<path d="M1190.25 394.037C1192.74 396.954 1193.63 400.88 1194.27 404.665C1196.04 415.261 1196.4 426.095 1195.34 436.787C1195.01 440.046 1194.37 443.632 1191.8 445.66C1189.29 447.636 1185.56 447.445 1182.75 445.917C1179.94 444.39 1177.9 441.766 1176.2 439.061C1170.47 429.971 1167.63 419.086 1168.19 408.355C1168.38 404.78 1168.96 401.144 1170.65 397.987C1174.22 391.279 1184.59 387.395 1190.25 394.037Z" fill="#BCC7FF"/>
<path d="M1188.17 412.723C1184.26 405.861 1179.57 399.549 1173.02 395.056C1159.87 386.04 1141.48 385.867 1126.16 385.773C1110.07 385.672 1093.51 386.094 1078.17 391.502C1064.88 396.19 1055.04 405.069 1047.33 416.704C1043.8 422.043 1040.72 427.659 1037.61 433.257C1026.97 425.64 1019.17 413.609 1019.42 400.626C1020.39 351.247 1092.21 340.15 1129.1 335.914C1148.3 333.708 1167.11 336.996 1182.77 352.457C1196.61 366.111 1202.03 388.787 1192.81 405.905C1191.49 408.359 1189.92 410.62 1188.17 412.723Z" fill="#246CD9"/>
<path d="M1157.96 338.626C1203.27 347.005 1222.28 360.987 1234.46 371.81C1246.63 382.636 1281.07 427.541 1260.3 444.076C1239.52 460.613 1200.68 403.996 1196.17 397.19C1191.65 390.381 1132.81 371.81 1132.81 371.81L1157.96 338.626Z" fill="#246CD9"/>
<path d="M1127.39 345.28C1169.01 361.067 1196.81 381.713 1198.88 389.146C1200.95 396.577 1215.83 445.111 1193.77 453.439C1171.72 461.758 1162.97 439.743 1156.79 412.738L1152.16 395.034L1103.94 364.783L1127.39 345.28Z" fill="#246CD9"/>
<path d="M1152.16 395.034C1159.25 417.227 1170.1 482.229 1145.64 490.137C1121.19 498.045 1113.82 439.976 1106.67 417.5C1099.51 395.028 1081.86 392.944 1070.06 417.66C1058.26 442.379 1031.67 489.95 1002.1 485.091C972.522 480.23 999.308 444.093 1009.36 422.36C1019.42 400.627 1018.08 370.689 1046.63 358.44C1075.19 346.193 1140.55 358.635 1152.16 395.034Z" fill="#246CD9"/>
<path d="M1138.06 335.26C1180.49 331.478 1234.24 343.934 1255.15 350.893C1276.05 357.85 1287.44 370.179 1280.58 385.702C1273.73 401.226 1206.11 386.697 1206.11 386.697L1138.06 335.26Z" fill="#246CD9"/>
<path d="M1154.77 467.141C1159.69 453.046 1158.34 437.316 1156 422.853C1153.98 410.295 1151.95 396.311 1140.79 388.388C1132.51 382.516 1119.6 382.628 1113.27 390.562C1104.69 401.306 1110.66 414.903 1113.93 426.383C1118.08 440.935 1120.03 457.125 1125.76 471.075C1127.86 476.178 1131.27 480.493 1137.21 480.806C1141.65 481.04 1145.99 478.952 1149.18 475.855C1151.94 473.169 1153.69 470.242 1154.77 467.141Z" fill="#3288ED"/>
<path d="M1193.38 449.769C1205.41 444.325 1200.31 412.599 1197.38 394.73C1194.46 376.863 1164.95 365.438 1158.11 370.776C1151.27 376.117 1154.8 389.179 1159.7 402.667C1164.61 416.154 1170.9 459.93 1193.38 449.769Z" fill="#3288ED"/>
<path d="M1198.88 368.553C1212.02 363.426 1245.34 383.06 1256.07 405.84C1266.8 428.618 1264.74 438.996 1252.03 442.7C1239.32 446.406 1212.92 411.352 1206.11 398.85C1199.3 386.348 1190.9 371.667 1198.88 368.553Z" fill="#3288ED"/>
<path d="M1223.23 348.832C1256.26 354.302 1277.19 368.546 1275.71 380.583C1274.23 392.619 1239.73 378.328 1233.04 370.254C1226.35 362.178 1223.23 348.832 1223.23 348.832Z" fill="#3288ED"/>
<path d="M1040.97 391.692C1064.81 400.14 1021.41 487.332 1003.17 478.434C984.94 469.536 1008.51 439.226 1014.29 421.462C1020.07 403.697 1027.19 386.804 1040.97 391.692Z" fill="#3288ED"/>
<path d="M1142.96 408.304C1146.39 411.901 1147.96 416.864 1149.13 421.697C1151.73 432.381 1152.93 443.397 1152.72 454.388C1152.59 460.773 1151.11 468.409 1145.17 470.752C1142.06 471.979 1138.41 471.281 1135.57 469.499C1132.74 467.715 1130.64 464.965 1129.01 462.039C1122.77 450.795 1123.12 437.201 1123.64 424.353C1124.04 414.299 1130.27 395.008 1142.96 408.304Z" fill="#BCC7FF"/>
<path d="M1267.4 369.104C1269.57 371.09 1271.49 373.919 1270.85 376.797C1270.14 379.983 1266.57 381.749 1263.31 381.885C1258.81 382.074 1254.51 380.058 1250.64 377.729C1245.43 374.583 1240.31 365.984 1248.52 362.612C1254.04 360.345 1263.55 365.603 1267.4 369.104Z" fill="#BCC7FF"/>
<path d="M1254.66 411.346C1257.58 416.937 1259.6 423.423 1258.04 429.537C1256.47 435.651 1250.29 440.863 1244.13 439.509C1239.85 438.569 1236.76 434.946 1234.16 431.423C1228.34 423.545 1206.05 394.463 1220.29 386.461C1232.39 379.664 1250.06 402.549 1254.66 411.346Z" fill="#BCC7FF"/>
<path d="M1031.92 434.009C1031.12 445.189 1026.5 456.062 1019.03 464.411C1017.1 466.558 1014.91 468.601 1012.18 469.529C1009.45 470.459 1006.08 470.019 1004.22 467.819C1002.43 465.701 1002.45 462.621 1002.81 459.873C1004.19 449.589 1009.14 440.179 1014 431.013C1019.98 419.746 1033.06 418.139 1031.92 434.009Z" fill="#BCC7FF"/>
<path d="M1081.02 344.513C1098.29 339.816 1115.93 337.427 1129.1 335.914C1132.13 335.565 1135.15 335.374 1138.15 335.326L1138.06 335.26C1180.49 331.478 1234.24 343.934 1255.15 350.893C1274.03 357.177 1285.14 367.847 1282.06 381.294C1281.15 374.882 1277.49 368.626 1272.52 364.291C1264.78 357.522 1254.57 354.418 1244.64 351.724C1217.35 344.32 1189.42 338.635 1161.12 337.394C1147.83 336.814 1134.2 336.744 1121.1 338.657C1107.74 340.609 1094.38 342.56 1081.02 344.513Z" fill="#8CDDF6"/>
</g>
<defs>
<clipPath id="clip0_208_8">
<rect width="291" height="158" fill="white" transform="translate(313 344)"/>
</clipPath>
<clipPath id="clip1_208_8">
<rect width="287" height="152" fill="white" transform="translate(996 335)"/>
</clipPath>
</defs>
</svg>
