<svg width="1600" height="519" viewBox="0 0 1600 519" fill="none" xmlns="http://www.w3.org/2000/svg">
<g clip-path="url(#clip0_210_5)">
<path d="M786.105 74.9258C785.513 74.9258 784.917 74.7523 784.394 74.389C783.029 73.444 782.688 71.5676 783.634 70.201L784.074 69.567C786.362 66.2611 789.981 64.3204 794 64.2411L794.256 64.2381C798.175 64.2381 801.764 66.0264 804.13 69.1708C805.13 70.5 804.864 72.3869 803.536 73.3857C802.208 74.3845 800.321 74.1199 799.323 72.7921C798.081 71.1429 796.194 70.1935 794.118 70.2608C792.055 70.3012 790.196 71.2985 789.021 72.997L788.582 73.631C787.997 74.4742 787.059 74.9258 786.105 74.9258Z" fill="white"/>
<path d="M710.301 100.515C711.886 102.434 713.679 103.974 715.639 105.19L715.51 105.084C711.313 101.364 708.282 96.1769 707.763 90.5894C707.245 85.0033 709.451 79.0899 713.91 75.6868C716.679 73.5726 720.128 72.502 723.585 72.0834C726.558 71.7245 729.559 71.8232 732.552 71.9832C728.238 69.9976 721.301 68.2736 713.307 71.8262C701.385 77.1267 703.218 91.9216 710.301 100.515Z" fill="#8CDDF6"/>
<path d="M737.223 74.8163C737.223 74.8163 726.76 65.8451 713.307 71.8259C701.385 77.1264 703.218 91.9213 710.301 100.514C714.676 105.821 720.618 108.304 727.407 108.699C734.987 109.14 743.41 107.059 743.41 107.059L737.223 74.8163Z" fill="#246CD9"/>
<path d="M796.391 180.758C805.79 180.758 813.409 173.137 813.409 163.736V133.651H779.375V163.736C779.375 173.137 786.994 180.758 796.391 180.758Z" fill="#246CD9"/>
<path d="M874.905 100.515C873.324 102.434 871.529 103.974 869.569 105.19L869.698 105.084C873.896 101.364 876.926 96.1769 877.445 90.5894C877.963 85.0033 875.757 79.0899 871.299 75.6868C868.53 73.5726 865.079 72.502 861.623 72.0834C858.65 71.7245 855.649 71.8232 852.656 71.9832C856.97 69.9976 863.909 68.2736 871.901 71.8262C883.823 77.1267 881.992 91.9216 874.905 100.515Z" fill="#8CDDF6"/>
<path d="M801.547 156.726C794.956 156.934 788.348 156.243 781.886 154.884V164.776C781.886 171.684 787.483 177.282 794.388 177.282C801.293 177.282 806.889 171.684 806.889 164.776V156.174C805.128 156.455 803.351 156.669 801.547 156.726Z" fill="#BCC7FF"/>
<path d="M710.301 100.515C711.886 102.434 713.679 103.974 715.639 105.19L715.51 105.084C711.313 101.364 708.282 96.1769 707.763 90.5894C707.245 85.0033 709.451 79.0899 713.91 75.6868C716.679 73.5726 720.128 72.502 723.585 72.0834C726.558 71.7245 729.559 71.8232 732.552 71.9832C728.238 69.9976 721.301 68.2736 713.307 71.8262C701.385 77.1267 703.218 91.9216 710.301 100.515Z" fill="white"/>
<path d="M847.985 74.8163C847.985 74.8163 858.448 65.8451 871.901 71.8259C883.823 77.1264 881.992 91.9213 874.905 100.514C870.532 105.821 864.59 108.304 857.801 108.699C850.221 109.14 841.798 107.059 841.798 107.059L847.985 74.8163Z" fill="#246CD9"/>
<path d="M737.81 21.927L793.425 14.0698L849.04 21.927C849.04 21.927 851.305 67.7697 850.184 92.6213C849.04 118.02 842.015 149.948 793.425 149.948C744.834 149.948 737.81 118.02 736.665 92.6213C735.546 67.7697 737.81 21.927 737.81 21.927Z" fill="#246CD9"/>
<path d="M765.7 104.272C765.7 109.602 761.382 113.922 756.055 113.922C750.726 113.922 746.408 109.602 746.408 104.272C746.408 98.9433 750.726 94.6236 756.055 94.6236C761.382 94.6236 765.7 98.9433 765.7 104.272Z" fill="#9DBBF4"/>
<path d="M753.729 36.1104C752.964 47.0059 745.659 56.3792 741.284 66.0756C735.759 78.3212 737.254 91.9529 740.789 104.64C745.973 123.244 759.324 140.475 777.845 145.931C792.806 150.337 809.603 146.456 822.104 137.13C834.606 127.805 842.927 113.49 846.451 98.294C849.976 83.0984 848.934 67.0773 845.091 51.9594C845.091 45.8202 838.55 43.063 834.269 39.974C828.397 35.7381 822.525 31.5022 816.654 27.2663C808.811 35.7022 797.806 41.1253 786.341 42.2048C774.875 43.2858 763.052 40.0129 753.772 33.1888C753.814 34.1756 753.796 35.149 753.729 36.1104Z" fill="#BCC7FF"/>
<path d="M821.149 104.272C821.149 109.602 825.468 113.922 830.797 113.922C836.124 113.922 840.444 109.602 840.444 104.272C840.444 98.9433 836.124 94.6236 830.797 94.6236C825.468 94.6236 821.149 98.9433 821.149 104.272Z" fill="#9DBBF4"/>
<path d="M810.87 71.5886C810.87 74.274 813.047 76.4495 815.73 76.4495C818.415 76.4495 820.59 74.274 820.59 71.5886C820.59 68.9032 818.415 66.7262 815.73 66.7262C813.047 66.7262 810.87 68.9032 810.87 71.5886Z" fill="#141621"/>
<path d="M775.98 71.5886C775.98 74.274 773.805 76.4495 771.121 76.4495C768.436 76.4495 766.26 74.274 766.26 71.5886C766.26 68.9032 768.436 66.7262 771.121 66.7262C773.805 66.7262 775.98 68.9032 775.98 71.5886Z" fill="#141621"/>
<path d="M766.859 54.7135C757.892 54.7135 750.598 62.0115 750.598 70.9827C750.598 79.9524 757.892 87.2489 766.859 87.2489C775.826 87.2489 783.122 79.9524 783.122 70.9827C783.122 62.0115 775.826 54.7135 766.859 54.7135ZM766.859 93.27C754.574 93.27 744.579 83.2717 744.579 70.9827C744.579 58.6922 754.574 48.6938 766.859 48.6938C779.146 48.6938 789.14 58.6922 789.14 70.9827C789.14 83.2717 779.146 93.27 766.859 93.27Z" fill="white"/>
<mask id="mask0_210_5" style="mask-type:luminance" maskUnits="userSpaceOnUse" x="781" y="3" width="27" height="8">
<path d="M793.309 10.2898C788.566 10.2898 784.723 8.41483 781.075 5.17325C784.741 6.89272 788.783 7.73899 792.829 7.73899C798.1 7.73899 803.375 6.30211 807.827 3.47918C804.325 7.35323 799.538 9.97731 794.322 10.2629C793.98 10.2808 793.642 10.2898 793.309 10.2898Z" fill="white"/>
</mask>
<g mask="url(#mask0_210_5)">
<path d="M793.309 10.2898C788.566 10.2898 784.723 8.41483 781.075 5.17325C784.741 6.89272 788.783 7.73899 792.829 7.73899C798.1 7.73899 803.375 6.30211 807.827 3.47918C804.325 7.35323 799.538 9.97731 794.322 10.2629C793.98 10.2808 793.642 10.2898 793.309 10.2898Z" fill="url(#paint0_linear_210_5)"/>
</g>
<mask id="mask1_210_5" style="mask-type:luminance" maskUnits="userSpaceOnUse" x="716" y="-47" width="204" height="121">
<path d="M903.809 73.1885C901.628 73.1885 899.478 72.6547 897.635 71.4854C895.115 69.8856 893.326 67.2555 890.665 65.9009C889.165 65.1369 887.55 64.8468 885.893 64.8468C883.108 64.8468 880.195 65.6632 877.469 66.4137C877.059 66.5274 876.643 66.6365 876.223 66.7412C875.171 67.0028 874.09 67.2286 873.008 67.3766C872.165 67.4918 871.322 67.5605 870.493 67.5605C868.292 67.5605 866.191 67.0836 864.443 65.7499C860.479 62.7221 860.358 56.9103 860.541 51.9253C860.723 46.9388 860.429 41.0837 856.321 38.2547C854.388 36.924 852.102 36.6115 849.725 36.6115C847.735 36.6115 845.683 36.8298 843.721 36.8568C843.61 36.8583 843.498 36.8597 843.386 36.8597C833.434 36.8597 823.706 30.8401 819.288 21.9138C811.177 30.9567 800.058 35.8565 787.936 36.622C786.357 36.7207 784.779 36.767 783.202 36.767C772.67 36.767 762.188 34.7022 751.825 32.6463C746.412 46.3123 741.765 58.8316 736.354 72.4977C736.354 72.4977 726.561 45.9176 720.935 25.6936C720.899 25.562 720.861 25.4305 720.826 25.2989C715.217 5.02706 710.838 -11.8686 740.139 -14.2684C742.599 -28.9991 755.385 -41.608 770.271 -42.7399C771.198 -42.8117 772.122 -42.8431 773.047 -42.8431C777.956 -42.8431 782.842 -41.934 787.727 -41.0234C792.613 -40.1143 797.496 -39.2038 802.399 -39.2038C803.49 -39.2038 804.581 -39.2486 805.674 -39.3488C813.422 -40.0575 820.627 -43.4785 828.134 -45.5224C831.401 -46.4121 834.891 -46.9997 838.305 -46.9997C842.736 -46.9997 847.04 -46.0084 850.574 -43.3978C856.557 -38.975 858.952 -30.9264 864.84 -26.3795C865.097 -26.1806 865.357 -25.9907 865.621 -25.8083C870.14 -22.7043 875.856 -21.8356 881.217 -20.5034C886.893 -19.0934 892.921 -16.6234 895.576 -11.4126C900.097 -2.54012 892.67 9.74141 898.734 17.639C901.477 21.211 906.329 22.7257 908.913 26.4128C911.403 29.9609 911.228 34.7605 910.085 38.9425C909.067 42.6716 907.374 46.2032 906.388 49.9322C906.269 50.3853 906.16 50.8413 906.064 51.3003C905.176 55.5452 905.62 60.4404 908.708 63.4817C910.092 64.8453 912.097 65.545 914.043 65.545C915.056 65.545 916.053 65.3566 916.938 64.9709C917.78 64.606 918.52 64.0648 919.077 63.3426C918.581 64.1381 918.034 64.9126 917.441 65.6557C915.476 68.1183 913.016 70.2384 910.273 71.6275C908.288 72.6322 906.033 73.1885 903.809 73.1885ZM904.081 64.8677C900.532 61.9536 900.105 56.5948 901.227 52.1421C902.351 47.6894 904.698 43.6135 905.758 39.1459C906.816 34.6782 906.218 29.3 902.547 26.5444C898.576 23.563 891.879 24.2014 889.707 19.7353C888.071 16.3681 889.752 12.5284 890.544 8.6813C890.92 6.85716 891.094 5.03302 890.624 3.25673C889.985 0.84797 888.819 -1.36491 887.041 -3.13223C885.971 -4.19532 882.059 -5.49314 881.539 -6.41567C883.827 -2.35473 884.395 1.96192 884.216 6.5417C884.128 8.76505 882.531 12.7393 883.929 14.8908C882.192 12.2189 880.456 9.54704 878.72 6.87513C878.443 13.1594 880.071 19.5155 883.334 24.8937C878.993 21.4503 875.914 16.4489 874.793 11.0228C873.706 16.1423 874.913 21.7059 878.025 25.9119C872.917 22.3788 869.518 16.4802 869.022 10.2871C867.276 17.8752 870.228 26.3455 876.313 31.2019C878.489 32.9393 881.083 34.3104 882.555 36.6743C884.796 40.2718 883.757 44.8859 883.682 49.1233C883.607 53.3607 885.695 58.5879 889.932 58.6806C887.773 56.4378 887.873 52.8329 888.787 49.856C889.703 46.879 891.286 44.083 891.679 40.9939C892.073 37.9049 890.772 34.2342 887.788 33.3445C888.367 33.0873 888.969 32.9693 889.574 32.9693C891.885 32.9693 894.22 34.6872 895.217 36.8867C896.474 39.6602 896.13 42.8794 895.537 45.8683C894.943 48.8557 894.118 51.879 894.496 54.9022C895.106 59.8065 899.205 64.0678 904.081 64.8677ZM732.269 8.9684C730.189 22.1097 730.709 35.6606 733.794 48.6045C737.677 38.02 740.995 27.2277 743.731 16.2904C741.33 19.2598 738.928 22.2292 736.528 25.1987C737.517 17.2278 739.152 9.3362 741.411 1.62997C740.235 1.45504 739.043 1.36832 737.853 1.36832C734.861 1.36832 731.869 1.91557 729.075 2.98762C733.588 0.731374 736.43 -3.2653 741.617 -5.10588C739.106 -6.58612 736.274 -7.39354 733.495 -7.39354C729.733 -7.39354 726.066 -5.91477 723.426 -2.62834C720.177 1.41317 719.326 6.98275 720.053 12.1187C720.779 17.2547 722.921 22.0723 725.144 26.7582C723.664 20.4171 724.383 13.5841 727.15 7.69C727.142 12.1352 727.136 16.5789 727.13 21.0226C727.647 16.6253 729.455 12.3864 732.269 8.9684ZM780.967 7.53599C773.023 9.65169 765.08 11.7689 757.137 13.8831C763.377 14.2644 769.618 14.6442 775.858 15.0254C769.782 16.5221 763.706 18.0173 757.629 19.514C765.893 25.9642 776.38 29.4211 786.851 29.4211C790.791 29.4196 794.729 28.9307 798.542 27.9274C790.045 26.8673 781.818 23.7065 774.796 18.8067C780.138 20.8955 785.87 21.9332 791.604 21.9332C798.51 21.9332 805.418 20.429 811.648 17.4431C808.454 18.3163 805.148 18.747 801.838 18.747C798.151 18.747 794.46 18.2117 790.927 17.159C791.178 17.1725 791.429 17.18 791.683 17.18C795.411 17.18 799.427 15.6609 802.653 13.6334C808.095 10.2109 813.113 5.46665 819.482 4.59346C820.2 4.49478 820.911 4.44843 821.618 4.44843C828.667 4.44843 835.163 9.10147 840.875 13.5272C837.807 5.00912 828.9 -0.890939 819.92 -0.890939C818.666 -0.890939 817.409 -0.775791 816.167 -0.53656C810.805 0.498114 805.976 3.50495 800.607 4.50972C799.175 4.77736 797.746 4.88801 796.318 4.88801C790.09 4.88801 783.893 2.77679 777.576 2.37907C776.92 2.3372 776.262 2.31478 775.603 2.31478C774.435 2.31478 773.264 2.38653 772.086 2.5525C766.205 3.38532 760.91 7.07845 755.279 7.9322C756.835 7.69596 758.398 7.60776 759.966 7.60776C762.273 7.60776 764.588 7.79915 766.902 7.98904C769.216 8.18042 771.528 8.37032 773.83 8.37032C776.225 8.37032 778.607 8.16397 780.967 7.53599ZM860.242 -8.6151C866.18 -8.6151 872.158 -4.41063 873.54 1.461C874.294 -6.61305 868.621 -14.8172 860.804 -16.9628C857.481 -17.8748 853.577 -17.9735 851.323 -20.5796C848.492 -23.8526 850.024 -28.9632 848.713 -33.0884C847.221 -37.7818 842.052 -40.4866 837.094 -40.4866C836.734 -40.4866 836.375 -40.4732 836.02 -40.4448C830.757 -40.0171 826.027 -37.115 821.842 -33.8944C817.658 -30.6722 813.732 -27.0209 809.005 -24.6645C804.053 -22.196 798.66 -21.3332 793.131 -21.3317C786.879 -21.3317 780.453 -22.4382 774.299 -23.5775C779.67 -25.8083 785.487 -26.9372 791.302 -26.9372C795.429 -26.9372 799.554 -26.369 803.521 -25.2237C796.363 -29.177 788.184 -31.2329 780.011 -31.2329C776.803 -31.2329 773.597 -30.9159 770.452 -30.273C775.193 -32.0149 779.933 -33.7568 784.674 -35.4987C780.633 -37.749 777.045 -38.8045 773.633 -38.8045C768.82 -38.8045 764.356 -36.7068 759.461 -32.906C750.68 -26.0924 749.832 -18.2905 745.146 -9.29841C747.578 -13.9679 752.182 -17.4457 757.337 -18.5103C754.995 -14.8785 752.653 -11.2466 750.312 -7.61482C757.505 -11.918 765.564 -14.7633 773.864 -15.9266C768.938 -12.3426 764.011 -8.75714 759.085 -5.17166C756.331 -3.61666 753.756 -1.75365 751.432 0.399433C753.983 -1.4576 756.533 -3.31463 759.085 -5.17166C765.576 -8.83788 773.05 -10.7921 780.507 -10.7921C784.271 -10.7921 788.028 -10.2942 791.658 -9.26998C795.705 -8.12615 800.025 -6.39472 804.085 -6.39472C805.849 -6.39472 807.563 -6.72218 809.186 -7.56697C812.833 -9.46736 814.989 -13.6255 818.787 -15.2074C819.907 -15.6724 821.052 -15.8773 822.202 -15.8773C826.274 -15.8773 830.434 -13.3235 833.84 -10.7263C837.686 -7.79575 842.039 -4.52872 846.698 -4.52872C847.332 -4.52872 847.972 -4.59003 848.616 -4.72011C851.356 -5.27184 853.692 -7.0317 856.329 -7.96022C857.596 -8.40579 858.919 -8.6151 860.242 -8.6151ZM919.077 63.3426C919.295 62.9942 919.502 62.6429 919.699 62.2885C919.532 62.6757 919.322 63.0256 919.077 63.3426Z" fill="white"/>
</mask>
<g mask="url(#mask1_210_5)">
<path d="M903.809 73.1885C901.628 73.1885 899.478 72.6547 897.635 71.4854C895.115 69.8856 893.326 67.2555 890.665 65.9009C889.165 65.1369 887.55 64.8468 885.893 64.8468C883.108 64.8468 880.195 65.6632 877.469 66.4137C877.059 66.5274 876.643 66.6365 876.223 66.7412C875.171 67.0028 874.09 67.2286 873.008 67.3766C872.165 67.4918 871.322 67.5605 870.493 67.5605C868.292 67.5605 866.191 67.0836 864.443 65.7499C860.479 62.7221 860.358 56.9103 860.541 51.9253C860.723 46.9388 860.429 41.0837 856.321 38.2547C854.388 36.924 852.102 36.6115 849.725 36.6115C847.735 36.6115 845.683 36.8298 843.721 36.8568C843.61 36.8583 843.498 36.8597 843.386 36.8597C833.434 36.8597 823.706 30.8401 819.288 21.9138C811.177 30.9567 800.058 35.8565 787.936 36.622C786.357 36.7207 784.779 36.767 783.202 36.767C772.67 36.767 762.188 34.7022 751.825 32.6463C746.412 46.3123 741.765 58.8316 736.354 72.4977C736.354 72.4977 726.561 45.9176 720.935 25.6936C720.899 25.562 720.861 25.4305 720.826 25.2989C715.217 5.02706 710.838 -11.8686 740.139 -14.2684C742.599 -28.9991 755.385 -41.608 770.271 -42.7399C771.198 -42.8117 772.122 -42.8431 773.047 -42.8431C777.956 -42.8431 782.842 -41.934 787.727 -41.0234C792.613 -40.1143 797.496 -39.2038 802.399 -39.2038C803.49 -39.2038 804.581 -39.2486 805.674 -39.3488C813.422 -40.0575 820.627 -43.4785 828.134 -45.5224C831.401 -46.4121 834.891 -46.9997 838.305 -46.9997C842.736 -46.9997 847.04 -46.0084 850.574 -43.3978C856.557 -38.975 858.952 -30.9264 864.84 -26.3795C865.097 -26.1806 865.357 -25.9907 865.621 -25.8083C870.14 -22.7043 875.856 -21.8356 881.217 -20.5034C886.893 -19.0934 892.921 -16.6234 895.576 -11.4126C900.097 -2.54012 892.67 9.74141 898.734 17.639C901.477 21.211 906.329 22.7257 908.913 26.4128C911.403 29.9609 911.228 34.7605 910.085 38.9425C909.067 42.6716 907.374 46.2032 906.388 49.9322C906.269 50.3853 906.16 50.8413 906.064 51.3003C905.176 55.5452 905.62 60.4404 908.708 63.4817C910.092 64.8453 912.097 65.545 914.043 65.545C915.056 65.545 916.053 65.3566 916.938 64.9709C917.78 64.606 918.52 64.0648 919.077 63.3426C918.581 64.1381 918.034 64.9126 917.441 65.6557C915.476 68.1183 913.016 70.2384 910.273 71.6275C908.288 72.6322 906.033 73.1885 903.809 73.1885ZM904.081 64.8677C900.532 61.9536 900.105 56.5948 901.227 52.1421C902.351 47.6894 904.698 43.6135 905.758 39.1459C906.816 34.6782 906.218 29.3 902.547 26.5444C898.576 23.563 891.879 24.2014 889.707 19.7353C888.071 16.3681 889.752 12.5284 890.544 8.6813C890.92 6.85716 891.094 5.03302 890.624 3.25673C889.985 0.84797 888.819 -1.36491 887.041 -3.13223C885.971 -4.19532 882.059 -5.49314 881.539 -6.41567C883.827 -2.35473 884.395 1.96192 884.216 6.5417C884.128 8.76505 882.531 12.7393 883.929 14.8908C882.192 12.2189 880.456 9.54704 878.72 6.87513C878.443 13.1594 880.071 19.5155 883.334 24.8937C878.993 21.4503 875.914 16.4489 874.793 11.0228C873.706 16.1423 874.913 21.7059 878.025 25.9119C872.917 22.3788 869.518 16.4802 869.022 10.2871C867.276 17.8752 870.228 26.3455 876.313 31.2019C878.489 32.9393 881.083 34.3104 882.555 36.6743C884.796 40.2718 883.757 44.8859 883.682 49.1233C883.607 53.3607 885.695 58.5879 889.932 58.6806C887.773 56.4378 887.873 52.8329 888.787 49.856C889.703 46.879 891.286 44.083 891.679 40.9939C892.073 37.9049 890.772 34.2342 887.788 33.3445C888.367 33.0873 888.969 32.9693 889.574 32.9693C891.885 32.9693 894.22 34.6872 895.217 36.8867C896.474 39.6602 896.13 42.8794 895.537 45.8683C894.943 48.8557 894.118 51.879 894.496 54.9022C895.106 59.8065 899.205 64.0678 904.081 64.8677ZM732.269 8.9684C730.189 22.1097 730.709 35.6606 733.794 48.6045C737.677 38.02 740.995 27.2277 743.731 16.2904C741.33 19.2598 738.928 22.2292 736.528 25.1987C737.517 17.2278 739.152 9.3362 741.411 1.62997C740.235 1.45504 739.043 1.36832 737.853 1.36832C734.861 1.36832 731.869 1.91557 729.075 2.98762C733.588 0.731374 736.43 -3.2653 741.617 -5.10588C739.106 -6.58612 736.274 -7.39354 733.495 -7.39354C729.733 -7.39354 726.066 -5.91477 723.426 -2.62834C720.177 1.41317 719.326 6.98275 720.053 12.1187C720.779 17.2547 722.921 22.0723 725.144 26.7582C723.664 20.4171 724.383 13.5841 727.15 7.69C727.142 12.1352 727.136 16.5789 727.13 21.0226C727.647 16.6253 729.455 12.3864 732.269 8.9684ZM780.967 7.53599C773.023 9.65169 765.08 11.7689 757.137 13.8831C763.377 14.2644 769.618 14.6442 775.858 15.0254C769.782 16.5221 763.706 18.0173 757.629 19.514C765.893 25.9642 776.38 29.4211 786.851 29.4211C790.791 29.4196 794.729 28.9307 798.542 27.9274C790.045 26.8673 781.818 23.7065 774.796 18.8067C780.138 20.8955 785.87 21.9332 791.604 21.9332C798.51 21.9332 805.418 20.429 811.648 17.4431C808.454 18.3163 805.148 18.747 801.838 18.747C798.151 18.747 794.46 18.2117 790.927 17.159C791.178 17.1725 791.429 17.18 791.683 17.18C795.411 17.18 799.427 15.6609 802.653 13.6334C808.095 10.2109 813.113 5.46665 819.482 4.59346C820.2 4.49478 820.911 4.44843 821.618 4.44843C828.667 4.44843 835.163 9.10147 840.875 13.5272C837.807 5.00912 828.9 -0.890939 819.92 -0.890939C818.666 -0.890939 817.409 -0.775791 816.167 -0.53656C810.805 0.498114 805.976 3.50495 800.607 4.50972C799.175 4.77736 797.746 4.88801 796.318 4.88801C790.09 4.88801 783.893 2.77679 777.576 2.37907C776.92 2.3372 776.262 2.31478 775.603 2.31478C774.435 2.31478 773.264 2.38653 772.086 2.5525C766.205 3.38532 760.91 7.07845 755.279 7.9322C756.835 7.69596 758.398 7.60776 759.966 7.60776C762.273 7.60776 764.588 7.79915 766.902 7.98904C769.216 8.18042 771.528 8.37032 773.83 8.37032C776.225 8.37032 778.607 8.16397 780.967 7.53599ZM860.242 -8.6151C866.18 -8.6151 872.158 -4.41063 873.54 1.461C874.294 -6.61305 868.621 -14.8172 860.804 -16.9628C857.481 -17.8748 853.577 -17.9735 851.323 -20.5796C848.492 -23.8526 850.024 -28.9632 848.713 -33.0884C847.221 -37.7818 842.052 -40.4866 837.094 -40.4866C836.734 -40.4866 836.375 -40.4732 836.02 -40.4448C830.757 -40.0171 826.027 -37.115 821.842 -33.8944C817.658 -30.6722 813.732 -27.0209 809.005 -24.6645C804.053 -22.196 798.66 -21.3332 793.131 -21.3317C786.879 -21.3317 780.453 -22.4382 774.299 -23.5775C779.67 -25.8083 785.487 -26.9372 791.302 -26.9372C795.429 -26.9372 799.554 -26.369 803.521 -25.2237C796.363 -29.177 788.184 -31.2329 780.011 -31.2329C776.803 -31.2329 773.597 -30.9159 770.452 -30.273C775.193 -32.0149 779.933 -33.7568 784.674 -35.4987C780.633 -37.749 777.045 -38.8045 773.633 -38.8045C768.82 -38.8045 764.356 -36.7068 759.461 -32.906C750.68 -26.0924 749.832 -18.2905 745.146 -9.29841C747.578 -13.9679 752.182 -17.4457 757.337 -18.5103C754.995 -14.8785 752.653 -11.2466 750.312 -7.61482C757.505 -11.918 765.564 -14.7633 773.864 -15.9266C768.938 -12.3426 764.011 -8.75714 759.085 -5.17166C756.331 -3.61666 753.756 -1.75365 751.432 0.399433C753.983 -1.4576 756.533 -3.31463 759.085 -5.17166C765.576 -8.83788 773.05 -10.7921 780.507 -10.7921C784.271 -10.7921 788.028 -10.2942 791.658 -9.26998C795.705 -8.12615 800.025 -6.39472 804.085 -6.39472C805.849 -6.39472 807.563 -6.72218 809.186 -7.56697C812.833 -9.46736 814.989 -13.6255 818.787 -15.2074C819.907 -15.6724 821.052 -15.8773 822.202 -15.8773C826.274 -15.8773 830.434 -13.3235 833.84 -10.7263C837.686 -7.79575 842.039 -4.52872 846.698 -4.52872C847.332 -4.52872 847.972 -4.59003 848.616 -4.72011C851.356 -5.27184 853.692 -7.0317 856.329 -7.96022C857.596 -8.40579 858.919 -8.6151 860.242 -8.6151ZM919.077 63.3426C919.295 62.9942 919.502 62.6429 919.699 62.2885C919.532 62.6757 919.322 63.0256 919.077 63.3426Z" fill="url(#paint1_linear_210_5)"/>
</g>
<path d="M820.998 54.7135C812.031 54.7135 804.735 62.0115 804.735 70.9827C804.735 79.9524 812.031 87.2489 820.998 87.2489C829.965 87.2489 837.261 79.9524 837.261 70.9827C837.261 62.0115 829.965 54.7135 820.998 54.7135ZM820.998 93.27C808.711 93.27 798.718 83.2717 798.718 70.9827C798.718 58.6922 808.711 48.6938 820.998 48.6938C833.283 48.6938 843.278 58.6922 843.278 70.9827C843.278 83.2717 833.283 93.27 820.998 93.27Z" fill="white"/>
<path d="M813.379 103.925C804.557 112.407 790.903 117.204 780.225 116.253C780.225 116.253 787.029 129.099 803.517 123.907C819.369 118.913 813.379 103.925 813.379 103.925Z" fill="white"/>
<path d="M793.795 105.849C793.547 105.849 793.296 105.788 793.063 105.656C787.679 102.63 789.8 94.0343 791.066 88.8983C791.264 88.0954 791.442 87.3747 791.566 86.7767C793.56 77.1446 793.98 68.4725 792.849 60.2639C792.737 59.4445 793.308 58.6909 794.125 58.5773C794.938 58.4637 795.696 59.0363 795.81 59.8542C796.989 68.4067 796.559 77.4123 794.493 87.3822C794.364 88.0132 794.178 88.7712 793.968 89.6145C792.906 93.9237 791.127 101.138 794.529 103.05C795.248 103.456 795.503 104.368 795.098 105.087C794.825 105.574 794.317 105.849 793.795 105.849Z" fill="#246CD9"/>
<mask id="mask2_210_5" style="mask-type:luminance" maskUnits="userSpaceOnUse" x="719" y="-8" width="25" height="57">
<path d="M733.794 48.604C730.709 35.6601 730.189 22.1092 732.269 8.96793C729.455 12.3859 727.648 16.6248 727.13 21.0222C727.136 16.5784 727.142 12.1347 727.15 7.68953C724.383 13.5836 723.664 20.4166 725.144 26.7577C722.921 22.0718 720.779 17.2543 720.053 12.1183C719.326 6.98228 720.177 1.4127 723.426 -2.62881C726.066 -5.91525 729.733 -7.39401 733.495 -7.39401C736.274 -7.39401 739.106 -6.5866 741.617 -5.10636C736.431 -3.26577 733.588 0.730901 729.075 2.98715C731.869 1.9151 734.861 1.36784 737.854 1.36784C739.043 1.36784 740.235 1.45456 741.411 1.6295C739.152 9.33573 737.517 17.2273 736.528 25.1982C738.928 22.2288 741.33 19.2593 743.731 16.2899C740.995 27.2272 737.677 38.0195 733.794 48.604ZM729.559 -4.284C724.689 -2.78581 721.419 2.70303 722.419 7.70146C723.788 3.03197 725.936 -1.03644 729.559 -4.284Z" fill="white"/>
</mask>
<g mask="url(#mask2_210_5)">
<path d="M733.794 48.604C730.709 35.6601 730.189 22.1092 732.269 8.96793C729.455 12.3859 727.648 16.6248 727.13 21.0222C727.136 16.5784 727.142 12.1347 727.15 7.68953C724.383 13.5836 723.664 20.4166 725.144 26.7577C722.921 22.0718 720.779 17.2543 720.053 12.1183C719.326 6.98228 720.177 1.4127 723.426 -2.62881C726.066 -5.91525 729.733 -7.39401 733.495 -7.39401C736.274 -7.39401 739.106 -6.5866 741.617 -5.10636C736.431 -3.26577 733.588 0.730901 729.075 2.98715C731.869 1.9151 734.861 1.36784 737.854 1.36784C739.043 1.36784 740.235 1.45456 741.411 1.6295C739.152 9.33573 737.517 17.2273 736.528 25.1982C738.928 22.2288 741.33 19.2593 743.731 16.2899C740.995 27.2272 737.677 38.0195 733.794 48.604ZM729.559 -4.284C724.689 -2.78581 721.419 2.70303 722.419 7.70146C723.788 3.03197 725.936 -1.03644 729.559 -4.284Z" fill="url(#paint2_linear_210_5)"/>
</g>
<mask id="mask3_210_5" style="mask-type:luminance" maskUnits="userSpaceOnUse" x="838" y="25" width="23" height="47">
<path d="M838.853 30.5959L851.014 71.9829L860.036 25.7784L838.853 30.5959Z" fill="white"/>
</mask>
<g mask="url(#mask3_210_5)">
<path d="M838.853 30.5959L851.014 71.9829L860.036 25.7784L838.853 30.5959Z" fill="url(#paint3_linear_210_5)"/>
</g>
<mask id="mask4_210_5" style="mask-type:luminance" maskUnits="userSpaceOnUse" x="745" y="-41" width="129" height="43">
<path d="M873.54 1.46069C872.158 -4.41093 866.18 -8.6154 860.242 -8.6154C858.919 -8.6154 857.596 -8.40609 856.329 -7.96052C853.692 -7.03201 851.356 -5.27214 848.616 -4.72041C847.972 -4.59033 847.332 -4.52903 846.698 -4.52903C842.039 -4.52903 837.686 -7.79605 833.84 -10.7266C830.434 -13.3238 826.274 -15.8776 822.202 -15.8776C821.052 -15.8776 819.907 -15.6727 818.787 -15.2077C814.989 -13.6258 812.833 -9.46766 809.186 -7.56727C807.563 -6.72248 805.849 -6.39502 804.085 -6.39502C800.025 -6.39502 795.705 -8.12646 791.658 -9.27028C788.028 -10.2945 784.271 -10.7924 780.507 -10.7924C773.05 -10.7924 765.576 -8.83818 759.085 -5.17197C764.011 -8.75744 768.938 -12.3429 773.864 -15.9269C765.564 -14.7636 757.505 -11.9183 750.312 -7.61513C752.653 -11.247 754.995 -14.8788 757.337 -18.5106C752.182 -17.446 747.578 -13.9682 745.146 -9.29872C749.832 -18.2908 750.68 -26.0927 759.461 -32.9063C764.356 -36.7071 768.82 -38.8048 773.633 -38.8048C777.045 -38.8048 780.633 -37.7493 784.674 -35.499C779.933 -33.7571 775.193 -32.0152 770.452 -30.2733C773.597 -30.9162 776.803 -31.2332 780.011 -31.2332C788.184 -31.2332 796.363 -29.1773 803.521 -25.224C799.554 -26.3693 795.429 -26.9375 791.302 -26.9375C785.487 -26.9375 779.67 -25.8086 774.299 -23.5778C780.453 -22.4385 786.879 -21.332 793.131 -21.332C798.66 -21.3335 804.053 -22.1963 809.006 -24.6648C813.732 -27.0213 817.659 -30.6725 821.842 -33.8947C826.027 -37.1153 830.757 -40.0174 836.02 -40.4451C836.375 -40.4735 836.734 -40.4869 837.094 -40.4869C842.052 -40.4869 847.221 -37.7821 848.713 -33.0887C850.024 -28.9635 848.492 -23.8529 851.323 -20.5799C853.577 -17.9738 857.481 -17.8751 860.804 -16.9631C868.621 -14.8175 874.294 -6.61335 873.54 1.46069ZM778.181 -19.7426C783.417 -16.4397 788.961 -14.5109 794.722 -14.5094C797.221 -14.5094 799.759 -14.8728 802.333 -15.6443C810.837 -18.1936 817.382 -21.4741 821.049 -29.5616C813.31 -21.797 802.332 -17.5387 791.396 -17.5387C786.907 -17.5387 782.428 -18.2564 778.181 -19.7426ZM751.432 0.399128C753.756 -1.75395 756.331 -3.61696 759.085 -5.17197C756.533 -3.31494 753.983 -1.4579 751.432 0.399128Z" fill="white"/>
</mask>
<g mask="url(#mask4_210_5)">
<path d="M873.54 1.46069C872.158 -4.41093 866.18 -8.6154 860.242 -8.6154C858.919 -8.6154 857.596 -8.40609 856.329 -7.96052C853.692 -7.03201 851.356 -5.27214 848.616 -4.72041C847.972 -4.59033 847.332 -4.52903 846.698 -4.52903C842.039 -4.52903 837.686 -7.79605 833.84 -10.7266C830.434 -13.3238 826.274 -15.8776 822.202 -15.8776C821.052 -15.8776 819.907 -15.6727 818.787 -15.2077C814.989 -13.6258 812.833 -9.46766 809.186 -7.56727C807.563 -6.72248 805.849 -6.39502 804.085 -6.39502C800.025 -6.39502 795.705 -8.12646 791.658 -9.27028C788.028 -10.2945 784.271 -10.7924 780.507 -10.7924C773.05 -10.7924 765.576 -8.83818 759.085 -5.17197C764.011 -8.75744 768.938 -12.3429 773.864 -15.9269C765.564 -14.7636 757.505 -11.9183 750.312 -7.61513C752.653 -11.247 754.995 -14.8788 757.337 -18.5106C752.182 -17.446 747.578 -13.9682 745.146 -9.29872C749.832 -18.2908 750.68 -26.0927 759.461 -32.9063C764.356 -36.7071 768.82 -38.8048 773.633 -38.8048C777.045 -38.8048 780.633 -37.7493 784.674 -35.499C779.933 -33.7571 775.193 -32.0152 770.452 -30.2733C773.597 -30.9162 776.803 -31.2332 780.011 -31.2332C788.184 -31.2332 796.363 -29.1773 803.521 -25.224C799.554 -26.3693 795.429 -26.9375 791.302 -26.9375C785.487 -26.9375 779.67 -25.8086 774.299 -23.5778C780.453 -22.4385 786.879 -21.332 793.131 -21.332C798.66 -21.3335 804.053 -22.1963 809.006 -24.6648C813.732 -27.0213 817.659 -30.6725 821.842 -33.8947C826.027 -37.1153 830.757 -40.0174 836.02 -40.4451C836.375 -40.4735 836.734 -40.4869 837.094 -40.4869C842.052 -40.4869 847.221 -37.7821 848.713 -33.0887C850.024 -28.9635 848.492 -23.8529 851.323 -20.5799C853.577 -17.9738 857.481 -17.8751 860.804 -16.9631C868.621 -14.8175 874.294 -6.61335 873.54 1.46069ZM778.181 -19.7426C783.417 -16.4397 788.961 -14.5109 794.722 -14.5094C797.221 -14.5094 799.759 -14.8728 802.333 -15.6443C810.837 -18.1936 817.382 -21.4741 821.049 -29.5616C813.31 -21.797 802.332 -17.5387 791.396 -17.5387C786.907 -17.5387 782.428 -18.2564 778.181 -19.7426ZM751.432 0.399128C753.756 -1.75395 756.331 -3.61696 759.085 -5.17197C756.533 -3.31494 753.983 -1.4579 751.432 0.399128Z" fill="url(#paint4_linear_210_5)"/>
</g>
<mask id="mask5_210_5" style="mask-type:luminance" maskUnits="userSpaceOnUse" x="868" y="-7" width="39" height="72">
<path d="M904.081 64.8677C899.205 64.0677 895.106 59.8065 894.496 54.9022C894.118 51.8789 894.943 48.8556 895.537 45.8682C896.13 42.8793 896.474 39.6602 895.217 36.8866C894.22 34.6872 891.885 32.9692 889.574 32.9692C888.969 32.9692 888.367 33.0873 887.788 33.3445C890.772 34.2341 892.073 37.9049 891.679 40.9939C891.286 44.083 889.703 46.879 888.787 49.8559C887.873 52.8329 887.773 56.4378 889.932 58.6806C885.695 58.5879 883.607 53.3607 883.682 49.1233C883.757 44.8859 884.796 40.2717 882.555 36.6743C881.083 34.3104 878.489 32.9393 876.313 31.2019C870.228 26.3455 867.276 17.8752 869.022 10.2871C869.518 16.4802 872.917 22.3787 878.025 25.9119C874.913 21.7059 873.706 16.1423 874.793 11.0228C875.914 16.4488 878.993 21.4503 883.334 24.8937C880.071 19.5155 878.443 13.1594 878.72 6.8751C880.457 9.54701 882.192 12.2189 883.929 14.8908C882.531 12.7392 884.128 8.76503 884.216 6.54168C884.395 1.9619 883.827 -2.35475 881.539 -6.4157C882.059 -5.49316 885.971 -4.19534 887.041 -3.13226C888.819 -1.36494 889.985 0.847946 890.624 3.2567C891.094 5.03299 890.92 6.85714 890.544 8.68127C889.752 12.5284 888.071 16.3681 889.707 19.7353C891.879 24.2014 898.576 23.5629 902.547 26.5443C906.218 29.3 906.816 34.6782 905.758 39.1458C904.698 43.6135 902.351 47.6894 901.227 52.1421C900.105 56.5948 900.532 61.9535 904.081 64.8677ZM898.682 50.8906C898.081 47.3679 899.605 43.8796 900.845 40.5259C902.082 37.1737 903.036 33.3146 901.404 30.1343C898.749 24.9609 884.994 25.8327 885.522 18.9802C885.522 18.9757 885.522 18.9712 885.522 18.9667C885.522 18.9622 885.524 18.9592 885.524 18.9547C885.524 18.9458 885.525 18.9368 885.525 18.9278C885.527 18.9263 885.527 18.9233 885.527 18.9219C885.527 18.9233 885.527 18.9249 885.525 18.9278C885.525 18.9368 885.524 18.9458 885.524 18.9547C885.524 18.9592 885.522 18.9622 885.522 18.9667C885.522 18.9712 885.522 18.9757 885.522 18.9802C885.296 21.8943 887.447 24.466 889.737 26.2977C892.051 28.1472 894.731 29.7262 896.214 32.2919C899.39 37.7778 895.788 45.2507 898.682 50.8906Z" fill="white"/>
</mask>
<g mask="url(#mask5_210_5)">
<path d="M904.081 64.8677C899.205 64.0677 895.106 59.8065 894.496 54.9022C894.118 51.8789 894.943 48.8556 895.537 45.8682C896.13 42.8793 896.474 39.6602 895.217 36.8866C894.22 34.6872 891.885 32.9692 889.574 32.9692C888.969 32.9692 888.367 33.0873 887.788 33.3445C890.772 34.2341 892.073 37.9049 891.679 40.9939C891.286 44.083 889.703 46.879 888.787 49.8559C887.873 52.8329 887.773 56.4378 889.932 58.6806C885.695 58.5879 883.607 53.3607 883.682 49.1233C883.757 44.8859 884.796 40.2717 882.555 36.6743C881.083 34.3104 878.489 32.9393 876.313 31.2019C870.228 26.3455 867.276 17.8752 869.022 10.2871C869.518 16.4802 872.917 22.3787 878.025 25.9119C874.913 21.7059 873.706 16.1423 874.793 11.0228C875.914 16.4488 878.993 21.4503 883.334 24.8937C880.071 19.5155 878.443 13.1594 878.72 6.8751C880.457 9.54701 882.192 12.2189 883.929 14.8908C882.531 12.7392 884.128 8.76503 884.216 6.54168C884.395 1.9619 883.827 -2.35475 881.539 -6.4157C882.059 -5.49316 885.971 -4.19534 887.041 -3.13226C888.819 -1.36494 889.985 0.847946 890.624 3.2567C891.094 5.03299 890.92 6.85714 890.544 8.68127C889.752 12.5284 888.071 16.3681 889.707 19.7353C891.879 24.2014 898.576 23.5629 902.547 26.5443C906.218 29.3 906.816 34.6782 905.758 39.1458C904.698 43.6135 902.351 47.6894 901.227 52.1421C900.105 56.5948 900.532 61.9535 904.081 64.8677ZM898.682 50.8906C898.081 47.3679 899.605 43.8796 900.845 40.5259C902.082 37.1737 903.036 33.3146 901.404 30.1343C898.749 24.9609 884.994 25.8327 885.522 18.9802C885.522 18.9757 885.522 18.9712 885.522 18.9667C885.522 18.9622 885.524 18.9592 885.524 18.9547C885.524 18.9458 885.525 18.9368 885.525 18.9278C885.527 18.9263 885.527 18.9233 885.527 18.9219C885.527 18.9233 885.527 18.9249 885.525 18.9278C885.525 18.9368 885.524 18.9458 885.524 18.9547C885.524 18.9592 885.522 18.9622 885.522 18.9667C885.522 18.9712 885.522 18.9757 885.522 18.9802C885.296 21.8943 887.447 24.466 889.737 26.2977C892.051 28.1472 894.731 29.7262 896.214 32.2919C899.39 37.7778 895.788 45.2507 898.682 50.8906Z" fill="url(#paint5_linear_210_5)"/>
</g>
<mask id="mask6_210_5" style="mask-type:luminance" maskUnits="userSpaceOnUse" x="722" y="-5" width="8" height="13">
<path d="M722.419 7.7019C721.419 2.70347 724.689 -2.78537 729.559 -4.28356C725.936 -1.036 723.788 3.03241 722.419 7.7019Z" fill="white"/>
</mask>
<g mask="url(#mask6_210_5)">
<path d="M722.419 7.7019C721.419 2.70347 724.689 -2.78537 729.559 -4.28356C725.936 -1.036 723.788 3.03241 722.419 7.7019Z" fill="url(#paint6_linear_210_5)"/>
</g>
<mask id="mask7_210_5" style="mask-type:luminance" maskUnits="userSpaceOnUse" x="885" y="18" width="18" height="33">
<path d="M898.682 50.8901C895.788 45.2503 899.39 37.7773 896.214 32.2914C894.731 29.7257 892.051 28.1467 889.737 26.2972C887.447 24.4656 885.296 21.8939 885.522 18.9797C884.995 25.8322 898.749 24.9605 901.404 30.1338C903.036 33.3141 902.082 37.1732 900.845 40.5254C899.606 43.8792 898.081 47.3675 898.682 50.8901ZM885.525 18.9274C885.527 18.9244 885.527 18.9229 885.527 18.9214C885.527 18.9229 885.527 18.9259 885.525 18.9274Z" fill="white"/>
</mask>
<g mask="url(#mask7_210_5)">
<path d="M898.682 50.8901C895.788 45.2503 899.39 37.7773 896.214 32.2914C894.731 29.7257 892.051 28.1467 889.737 26.2972C887.447 24.4656 885.296 21.8939 885.522 18.9797C884.995 25.8322 898.749 24.9605 901.404 30.1338C903.036 33.3141 902.082 37.1732 900.845 40.5254C899.606 43.8792 898.081 47.3675 898.682 50.8901ZM885.525 18.9274C885.527 18.9244 885.527 18.9229 885.527 18.9214C885.527 18.9229 885.527 18.9259 885.525 18.9274Z" fill="url(#paint7_linear_210_5)"/>
</g>
<mask id="mask8_210_5" style="mask-type:luminance" maskUnits="userSpaceOnUse" x="755" y="-1" width="86" height="31">
<path d="M786.851 29.4209C776.38 29.4209 765.893 25.964 757.629 19.5137C763.707 18.0171 769.783 16.5219 775.859 15.0252C769.618 14.6439 763.378 14.2641 757.137 13.8829C765.08 11.7686 773.023 9.65146 780.968 7.53576C778.607 8.16374 776.225 8.37009 773.83 8.37009C771.528 8.37009 769.216 8.18019 766.902 7.98881C764.588 7.79892 762.273 7.60753 759.967 7.60753C758.399 7.60753 756.835 7.69573 755.279 7.93197C760.91 7.07822 766.206 3.38509 772.086 2.55227C773.264 2.3863 774.436 2.31455 775.603 2.31455C776.262 2.31455 776.92 2.33697 777.576 2.37884C783.893 2.77656 790.09 4.88778 796.319 4.88778C797.746 4.88778 799.175 4.77713 800.607 4.50949C805.976 3.50472 810.805 0.497884 816.167 -0.536791C817.409 -0.776022 818.666 -0.891169 819.92 -0.891169C828.901 -0.891169 837.808 5.00889 840.875 13.527C835.164 9.10124 828.667 4.4482 821.618 4.4482C820.911 4.4482 820.2 4.49455 819.482 4.59323C813.113 5.46642 808.095 10.2107 802.653 13.6332C799.428 15.6607 795.411 17.1798 791.683 17.1798C791.429 17.1798 791.178 17.1723 790.927 17.1588C794.461 18.2114 798.151 18.7467 801.839 18.7467C805.148 18.7467 808.454 18.3161 811.648 17.4429C805.418 20.4288 798.51 21.933 791.604 21.933C785.87 21.933 780.138 20.8953 774.796 18.8065C781.818 23.7063 790.045 26.8671 798.543 27.9272C794.73 28.9305 790.791 29.4194 786.851 29.4209ZM781.075 5.17335C784.724 8.41493 788.567 10.2899 793.31 10.2899C793.643 10.2899 793.981 10.2809 794.323 10.263C799.538 9.97741 804.326 7.35333 807.828 3.47928C803.375 6.30221 798.1 7.73909 792.83 7.73909C788.784 7.73909 784.742 6.89282 781.075 5.17335Z" fill="white"/>
</mask>
<g mask="url(#mask8_210_5)">
<path d="M786.851 29.4209C776.38 29.4209 765.893 25.964 757.629 19.5137C763.707 18.0171 769.783 16.5219 775.859 15.0252C769.618 14.6439 763.378 14.2641 757.137 13.8829C765.08 11.7686 773.023 9.65146 780.968 7.53576C778.607 8.16374 776.225 8.37009 773.83 8.37009C771.528 8.37009 769.216 8.18019 766.902 7.98881C764.588 7.79892 762.273 7.60753 759.967 7.60753C758.399 7.60753 756.835 7.69573 755.279 7.93197C760.91 7.07822 766.206 3.38509 772.086 2.55227C773.264 2.3863 774.436 2.31455 775.603 2.31455C776.262 2.31455 776.92 2.33697 777.576 2.37884C783.893 2.77656 790.09 4.88778 796.319 4.88778C797.746 4.88778 799.175 4.77713 800.607 4.50949C805.976 3.50472 810.805 0.497884 816.167 -0.536791C817.409 -0.776022 818.666 -0.891169 819.92 -0.891169C828.901 -0.891169 837.808 5.00889 840.875 13.527C835.164 9.10124 828.667 4.4482 821.618 4.4482C820.911 4.4482 820.2 4.49455 819.482 4.59323C813.113 5.46642 808.095 10.2107 802.653 13.6332C799.428 15.6607 795.411 17.1798 791.683 17.1798C791.429 17.1798 791.178 17.1723 790.927 17.1588C794.461 18.2114 798.151 18.7467 801.839 18.7467C805.148 18.7467 808.454 18.3161 811.648 17.4429C805.418 20.4288 798.51 21.933 791.604 21.933C785.87 21.933 780.138 20.8953 774.796 18.8065C781.818 23.7063 790.045 26.8671 798.543 27.9272C794.73 28.9305 790.791 29.4194 786.851 29.4209ZM781.075 5.17335C784.724 8.41493 788.567 10.2899 793.31 10.2899C793.643 10.2899 793.981 10.2809 794.323 10.263C799.538 9.97741 804.326 7.35333 807.828 3.47928C803.375 6.30221 798.1 7.73909 792.83 7.73909C788.784 7.73909 784.742 6.89282 781.075 5.17335Z" fill="url(#paint8_linear_210_5)"/>
</g>
</g>
<defs>
<linearGradient id="paint0_linear_210_5" x1="645.829" y1="-151.818" x2="860.619" y2="82.0897" gradientUnits="userSpaceOnUse">
<stop stop-color="#2DADC9"/>
<stop offset="1" stop-color="#512E95"/>
</linearGradient>
<linearGradient id="paint1_linear_210_5" x1="756.073" y1="119.617" x2="875.643" y2="-52.0514" gradientUnits="userSpaceOnUse">
<stop stop-color="#141621"/>
<stop offset="1" stop-color="#2B235E"/>
</linearGradient>
<linearGradient id="paint2_linear_210_5" x1="625.085" y1="-100.971" x2="780.604" y2="68.3895" gradientUnits="userSpaceOnUse">
<stop stop-color="#0B9CED"/>
<stop offset="1" stop-color="#2B235E"/>
</linearGradient>
<linearGradient id="paint3_linear_210_5" x1="783.887" y1="138.99" x2="903.457" y2="-32.6802" gradientUnits="userSpaceOnUse">
<stop stop-color="#141621"/>
<stop offset="1" stop-color="#2B235E"/>
</linearGradient>
<linearGradient id="paint4_linear_210_5" x1="559.088" y1="-279.561" x2="914.389" y2="107.36" gradientUnits="userSpaceOnUse">
<stop stop-color="#0B81ED"/>
<stop offset="1" stop-color="#2B235E"/>
</linearGradient>
<linearGradient id="paint5_linear_210_5" x1="726.12" y1="-148.03" x2="960.782" y2="107.515" gradientUnits="userSpaceOnUse">
<stop stop-color="#0B9CED"/>
<stop offset="1" stop-color="#2B235E"/>
</linearGradient>
<linearGradient id="paint6_linear_210_5" x1="625.085" y1="-100.97" x2="780.604" y2="68.39" gradientUnits="userSpaceOnUse">
<stop stop-color="#2DC9C9"/>
<stop offset="1" stop-color="#512E95"/>
</linearGradient>
<linearGradient id="paint7_linear_210_5" x1="726.12" y1="-148.03" x2="960.782" y2="107.515" gradientUnits="userSpaceOnUse">
<stop stop-color="#2DB6C9"/>
<stop offset="1" stop-color="#512E95"/>
</linearGradient>
<linearGradient id="paint8_linear_210_5" x1="645.829" y1="-151.818" x2="860.62" y2="82.0896" gradientUnits="userSpaceOnUse">
<stop stop-color="#0B65ED"/>
<stop offset="1" stop-color="#2B235E"/>
</linearGradient>
<clipPath id="clip0_210_5">
<rect width="1600" height="519" fill="white"/>
</clipPath>
</defs>
</svg>
