<svg width="137" height="66" viewBox="0 0 137 66" fill="none" xmlns="http://www.w3.org/2000/svg">
<g clip-path="url(#clip0_0_397)">
<path d="M1.58825 32.8756L50.3729 64.4036L134.963 64.2721L135.087 48.5205L91.3693 1.59639H1.58825V32.8756ZM50.1402 66C49.9878 66 49.8386 65.9557 49.7107 65.8732L0.364556 33.9824C0.137107 33.8358 0 33.5826 0 33.3113V0.798198C0 0.357447 0.355699 0 0.793948 0H91.7135C91.9332 0 92.1435 0.0914946 92.2939 0.252769L136.463 47.6625C136.602 47.812 136.679 48.0096 136.677 48.2143L136.545 65.0755C136.542 65.5133 136.188 65.8665 135.753 65.867L50.1412 66H50.1402Z" fill="white"/>
<path d="M51.6479 58.4672H55.8415V57.2679H51.6479V58.4672ZM51.6479 55.4519H57.6487V60.2828H49.8411V52.437H57.6487V54.2417H51.6479V55.4519Z" fill="white"/>
<path d="M66.2701 52.437H68.0772V60.2828H60.2698V58.4672H66.2701V57.2679H60.2698V52.437H62.0764V55.4519H66.2701V52.437Z" fill="white"/>
<path d="M73.3977 58.4668H76.933V54.2412H74.3901L73.3977 55.6308V58.4668ZM78.7402 58.4327H79.633V62.0529H77.8366V60.2823H72.5054V62.0529H70.6982V58.4327H71.6018V54.8687L73.3531 52.4365H78.7402V58.4327Z" fill="white"/>
<path d="M88.2542 52.437H90.0614V60.2828H82.2539V58.4672H88.2542V57.2679H82.2539V52.437H84.0606V55.4519H88.2542V52.437Z" fill="white"/>
<path d="M100.49 58.4668H101.394V62.087H99.5872V60.2823H92.6829V52.4365H94.49V58.4668H95.683V52.4365H97.4902V58.4668H98.6832V52.4365H100.49V58.4668Z" fill="white"/>
<path d="M111.264 54.2526H105.264V55.4514H111.264V57.2679H105.264V58.4673H111.264V60.2823H103.457V52.4365H111.264V54.2526Z" fill="white"/>
<path d="M121.693 52.437V54.2417H115.693V60.2828H113.885V52.437H121.693Z" fill="white"/>
<path d="M126.122 58.4672H130.315V54.2417H126.122V58.4672ZM124.314 52.437H132.122V60.2828H124.314V52.437Z" fill="white"/>
<path d="M34.0399 6.14478V21.3037H27.2147L34.0399 30.7649H27.2498L20.4249 21.3037H15.2098V30.7649H9.53955V6.14478H15.2098V15.606H28.37V6.14478H34.0399Z" fill="white"/>
<path d="M43.209 25.0672H56.369V11.8073H43.209V25.0672ZM37.5391 6.14478H62.0394V30.765H37.5391V6.14478Z" fill="white"/>
<path d="M74.0092 25.0677H85.1042V11.8078H77.1243L74.0092 16.169V25.0677ZM90.7745 24.962H93.5746V36.3225H87.9396V30.7654H71.2092V36.3225H65.5388V24.962H68.3743V13.7772L73.8691 6.14526H90.7745V24.962Z" fill="white"/>
</g>
<defs>
<clipPath id="clip0_0_397">
<rect width="137" height="66" fill="white"/>
</clipPath>
</defs>
</svg>
