<svg width="21" height="24" viewBox="0 0 21 24" fill="none" xmlns="http://www.w3.org/2000/svg">
<path d="M2.53711 8.13277C2.53711 12.3308 5.97186 15.7655 10.1699 15.7655C14.3679 15.7655 17.8027 12.3308 17.8027 8.13277C17.8027 3.93475 14.3679 0.5 10.1699 0.5C5.97186 0.5 2.53711 3.93475 2.53711 8.13277ZM16.0067 8.13277C16.0067 11.343 13.3801 13.9696 10.1699 13.9696C6.95963 13.9696 4.33306 11.343 4.33306 8.13277C4.33306 4.92252 6.95963 2.29595 10.1699 2.29595C13.3801 2.29595 16.0067 4.92252 16.0067 8.13277Z" fill="white"/>
<path d="M1.27961 23.9371C3.65924 21.5575 6.80215 20.2554 10.1695 20.2554C13.5369 20.2554 16.6798 21.5575 19.0595 23.9371L20.3391 22.6575C17.6227 19.9636 14.0084 18.4595 10.1695 18.4595C6.33071 18.4595 2.71637 19.9636 0 22.6575L1.27961 23.9371Z" fill="white"/>
</svg>
